<?xml version="1.0" encoding="utf-8"?>
<!-- Generator: Adobe Illustrator 24.0.0, SVG Export Plug-In . SVG Version: 6.00 Build 0)  -->
<svg version="1.1"
	 id="svg17" sodipodi:docname="logo.svg" xmlns:inkscape="http://www.inkscape.org/namespaces/inkscape" xmlns:sodipodi="http://sodipodi.sourceforge.net/DTD/sodipodi-0.dtd" xmlns:svg="http://www.w3.org/2000/svg"
	 xmlns="http://www.w3.org/2000/svg" xmlns:xlink="http://www.w3.org/1999/xlink" x="0px" y="0px" viewBox="0 0 501.3 75.4"
	 style="enable-background:new 0 0 501.3 75.4;" xml:space="preserve">

<sodipodi:namedview  bordercolor="#000000" borderopacity="0.25" id="namedview19" inkscape:deskcolor="#d1d1d1" inkscape:pagecheckerboard="0" inkscape:pageopacity="0.0" inkscape:showpageshadow="2" pagecolor="#ffffff">
	</sodipodi:namedview>
<g id="SvgjsG2382" transform="matrix(2,0,0,2,0,-19)">
	<g id="g11" transform="translate(-270 -140)">
		<g id="g9">
			<path id="path3" class="st0" d="M289.6,174.6c-1.6,0-3,0.9-3.8,2.2c-0.4,0.6-0.6,1.4-0.6,2.2c0,2.4,2,4.4,4.4,4.4
				c2.4,0,4.4-2,4.4-4.4c0-0.8-0.2-1.5-0.6-2.2C292.6,175.4,291.2,174.6,289.6,174.6z"/>
			<path id="path5" class="st0" d="M320.1,174.6c-1.6,0-3,0.9-3.8,2.2c-0.4,0.6-0.6,1.4-0.6,2.2c0,2.4,2,4.4,4.4,4.4
				c2.4,0,4.4-2,4.4-4.4c0-0.8-0.2-1.5-0.6-2.2C323.1,175.4,321.7,174.6,320.1,174.6z"/>
			<path id="path7" class="st0" d="M333.2,170.2V168l-13.1-3.7l-15.3-9.3h-24v2.2H294v2.2h-24v2.2h26.2v2.2h-21.8v2.2h10.9v2.2h-4.4
				v2.2h-8.7v2.2h10.9v2.2h-2.2v2.2h-6.5v2.2h8.7c0-0.8,0.2-1.5,0.4-2.2c0.9-2.5,3.3-4.4,6.1-4.4c2.8,0,5.2,1.8,6.1,4.4
				c0.2,0.7,0.4,1.4,0.4,2.2h17.4c0-0.8,0.2-1.5,0.4-2.2c0.9-2.5,3.3-4.4,6.1-4.4c2.8,0,5.2,1.8,6.1,4.4c0.2,0.7,0.4,1.4,0.4,2.2
				h6.5v-2.2h2.2v-6.5H333.2z"/>
		</g>
	</g>
</g>
<g>
	<path class="st1" d="M211.7,36.2c-1.5,2.1-2.8,4.3-4.4,6.4c-2.9,3.5-6.8,6-12,6.7c-4.4,0.6-8.6,0.3-11.9-2.7
		c-2.7-2.4-3.4-5.4-3.3-8.7c0.2-4.5,1.8-8.9,2.8-13.3c0.6-2.7,1.2-5.5,1.5-8.3c0.3-2.9-1.6-3.9-4.8-2.7c-3,1.1-5.1,3-7.1,5
		c-0.5,0.5-0.9,1-1.5,1.5c-0.6,0.6-1.4,1.1-2.4,0.7c-1.1-0.3-1.7-1.1-1.7-2c0-1,0.1-2.1,0.7-2.9c3.5-4.9,8.1-8.6,15.2-9.6
		c3.2-0.4,6.3-0.3,8.8,1.7c1.7,1.3,2.4,3.1,2.6,5c0.4,3.5-0.3,6.9-1.1,10.3c-1,4.1-2.1,8.1-3,12.2c-0.2,1.1-0.1,2.4,0.2,3.6
		c0.5,2.3,2.9,3.4,5.8,3.1c2.6-0.3,4.6-1.4,6.4-2.8c3.3-2.7,5.3-6,7.1-9.5c2.8-5.6,4.2-11.5,5.1-17.5c0.2-1.1,0.3-2.3,0.7-3.3
		c1-2.9,5.8-4,8.2-1.8c0.7,0.6,1.2,1.7,1.2,2.5c-0.1,2.2-0.4,4.3-0.8,6.5c-1.6,9.4-3.3,18.9-4.9,28.4c0.4,0,0.7-0.1,1-0.1
		c2.3-0.5,4.6-1,7-1.4c0.9-0.2,1.1-0.5,1.2-1.2c0.3-3.9,2-7.3,5.3-10.1c4.3-3.6,11.7-4.5,16.4-1.8c3.3,1.9,4.9,4.7,5.6,7.9
		c0.1,0.3,0.2,0.7,0.3,1.2c1.7-0.2,3.4-0.4,5-0.7c0.3-0.1,0.6-0.6,0.7-0.9c0.5-1.7,1-3.4,1.4-5.1c0.8-2.9,3-4.1,7.2-3.8
		c1.1,0.1,1.6,0.6,1.4,1.5c-0.2,1.2-0.6,2.4-0.9,3.6c-0.5,2.2-1.1,4.4-1.7,6.7c-0.1,0.5-0.1,0.9,0,1.4c1.1-1.7,2-3.5,3.2-5.2
		c2.1-2.9,4.6-5.6,8.4-7.1c1.1-0.4,2.3-0.7,3.5-0.8c3-0.3,4.9,1.1,4.8,3.7c-0.1,2.1-0.6,4.2-1,6.3c-0.5,2.3-1.1,4.6-1.6,7
		c-0.2,0.7-0.2,1.5-0.2,2.2c0.1,1.7,1.5,2.5,3.3,1.6c1.6-0.8,2.9-2.1,4.4-3.1c1.1-0.8,1.4-1.7,1.4-3c0.1-10.2,1.5-20.2,5.5-29.9
		c1.5-3.5,3.2-6.9,6.3-9.6c0.9-0.8,2.1-1.6,3.3-2.1c4.8-1.9,9-0.2,10.3,4.2c1.2,3.9,0.3,7.6-1.3,11.3c-2.1,4.9-5.7,9.2-9.6,13.2
		c-1.7,1.8-3.6,3.6-5.4,5.3c-0.2,0.2-0.6,0.5-0.6,0.8c-0.1,1.8,0,3.7,0,5.6c0.4-0.8,0.8-1.5,1.2-2.2c1.8-3.4,4-6.6,7.7-8.9
		c1.3-0.8,2.7-1.5,4.1-1.9c4.8-1.5,9.9,1.3,10.2,5.7c0.3,4.7-2.1,8.1-6.7,10.6c-0.6,0.3-1.2,0.6-1.8,0.9c0.5,2.8,4.2,4.5,7.2,3.1
		c1.6-0.7,2.9-1.9,4.3-2.9c0.2-0.2,0.3-0.6,0.2-1c-0.4-4.4,0.7-8.5,4-12c3.7-3.8,8.4-5.5,14.2-4.5c3.2,0.5,5.6,2.7,6,5.5
		c0.8,4.7-1.6,8.5-7,10.8c-2.2,0.9-4.7,1.5-7,2.2c-0.2,0.1-0.4,0.1-0.8,0.2c1.1,1.7,2.9,2.4,4.9,2.6c4.1,0.4,7.6-1,10.9-2.9
		c2.1-1.1,3.3-2.4,3.4-4.8c0.2-3.3,1.3-6.6,2-9.9c0.9-3.6,4-4.3,7.6-3.8c1.1,0.1,1.2,0.9,1,1.7c-0.4,1.7-1,3.5-1.4,5.2
		c-0.5,2.1-1,4.2-1.4,6.3c0.1,0,0.2,0.1,0.4,0.1c0.2-0.4,0.4-0.7,0.6-1.1c1.9-3.7,4.3-7.2,8-9.9c1.7-1.3,3.7-2.1,6-2.4
		c3-0.3,4.8,0.9,4.9,3.4c0,1.2-0.3,2.4-0.5,3.6c0,0.3-0.1,0.5-0.1,0.7c0.1,0.1,0.2,0.1,0.2,0.1c3.4,0,4.9,2.8,3.3,5.2
		c-1.4,2.2-3.1,4-6.1,4.5c-3.1,0.6-5.7-1.1-5.8-3.8c0-1.1,0.2-2.3,0.1-3.4c0-0.5-0.3-1.1-0.5-1.6c-0.6,0.2-1.4,0.3-1.8,0.7
		c-0.9,0.8-1.7,1.8-2.4,2.8c-2.4,3.4-3.9,7.1-5.1,10.9c-0.2,0.6-0.4,1.2-0.7,1.8c-0.8,1.8-1.8,2.3-3.9,2.3c-1.9,0-3-0.6-3.9-2.3
		c-0.3-0.6-0.4-1.2-0.7-1.8c-4,2.4-8.3,4.1-13.4,4.1c-5,0-9.6-1-12.8-4.6c-2.1,1.6-4.1,3.1-6.7,3.9c-5.2,1.6-11.5,0.2-14.4-3.1
		c-1.6-1.8-2.2-3.9-1.9-6.2c0.1-1.2,1.1-1.9,2.3-2.5c1.3-0.6,2.6-1.2,3.8-1.9c1.6-1,2.4-2.3,2.3-4c-0.1-1.6-1.4-2.3-3.1-1.6
		c-1.9,0.8-3.1,2.2-4.2,3.6c-3,3.8-4.8,8-6.1,12.3c-0.1,0.4-0.3,0.9-0.5,1.3c-0.9,2-2,2.7-4.3,2.6c-2.1-0.1-3.1-0.8-3.8-2.8
		c-0.1-0.4-0.3-0.7-0.4-1.1c-1.5,0.9-2.9,1.8-4.5,2.6c-2.6,1.2-5.4,1.6-8.3,1.2c-3.2-0.4-5.2-2.5-5.2-5.7c0-2.3,0.6-4.6,0.9-6.9
		c0.2-1.5,0.6-3,0.8-4.5c0.1-0.4-0.3-0.8-0.4-1.2c-0.5,0.2-1.2,0.2-1.5,0.6c-1.4,1.6-2.9,3.3-3.8,5.1c-1.5,2.8-2.5,5.8-3.8,8.7
		c-0.3,0.7-0.5,1.4-0.8,2.1c-0.6,1.4-1.9,2.1-3.7,2.1c-1.8,0-3.2-0.6-3.7-2c-0.6-1.7-1-3.4-1.2-5.1c-0.2-1.4,0-2.8,0-4.2
		c-1.7,0.2-3.3,0.4-4.8,0.4c-0.8,0-0.8,0.5-0.9,0.9c-1,2.9-2.7,5.4-5.5,7.4c-6.8,4.7-16.5,2.8-20-4.1c-0.1-0.1-0.2-0.3-0.3-0.5
		c-2.8,0.5-5.6,1-8.3,1.5c-2.7,0.5-2.7,0.5-3.2,2.8c-0.9,4.3-2,8.5-4.5,12.4c-3.3,5.1-8.2,8.5-15.2,9.2c-2.9,0.3-5.7,0.1-8.4-0.8
		c-4.5-1.6-6.7-5.2-5.7-9.8c0.8-3.8,3.5-6.7,6.9-9.1c4.6-3.2,9.9-5.2,15.3-6.9c1-0.3,2.1-0.6,3-0.9c0.4-0.1,0.8-0.5,0.9-0.8
		c0.6-3.4,1.2-6.8,1.8-10.2C211.7,36.3,211.7,36.2,211.7,36.2z M209,53.2c-5.5,1.7-10.5,3.4-14.3,6.7c-1.7,1.5-2.8,3.3-2.7,5.5
		c0.1,2,1.7,3.4,4,3.5c3.3,0.2,5.9-0.8,7.9-3c1.6-1.7,2.7-3.7,3.3-5.8C207.8,58,208.3,55.7,209,53.2z M243.7,34.8
		c-1.7-0.1-2.9,0.4-4.1,1.3c-3.2,2.5-3.3,9.2-1.7,11.6c1.9,2.7,5.4,3.1,7.7,0.7c1-1.1,1.5-2.6,2.1-3.9c0.1-0.2-0.3-0.6-0.6-0.9
		c-1-1.2-2.1-2.2-2.9-3.5C243.4,38.6,243.3,36.8,243.7,34.8z M304.9,28.6c0.1,0,0.3,0.1,0.4,0.1c1-1.2,2.1-2.4,3.1-3.6
		c3-3.8,5.5-7.8,6.2-12.3c0.2-1.5,0.1-3-0.1-4.4c-0.1-0.6-0.7-1.3-1.3-1.5c-0.9-0.3-1.5,0.5-1.9,1.1c-0.5,0.6-0.8,1.3-1.2,2
		c-1.9,3.9-3,8-3.9,12.1C305.7,24.2,305.3,26.4,304.9,28.6z M338.8,43.1c3-0.6,5.7-1.5,7.7-3.5c0.9-0.9,1.2-1.9,1.1-3.1
		c-0.1-1.4-1.2-2.2-2.9-2.1c-1.4,0.1-2.5,0.6-3.3,1.4C339.5,37.9,338.8,40.3,338.8,43.1z"/>
	<path class="st2" d="M406,49.4c-0.2-3.1-2.5-5.3-4.7-7.6c-0.6,0.9-1.1,1.6-1.6,2.4c-1.9,2.8-4.4,5.3-7.2,7.6
		c-0.1,0.1-0.2,0.1-0.3,0.2c-1.5,1.1-3,1.2-4.1,0.4c-1.1-0.8-1.2-2.4-0.1-3.6c1.1-1.2,2.2-2.4,3.3-3.6c3.8-3.8,6.2-8.3,8.5-12.8
		c0.1-0.3,0.3-0.5,0.4-0.8c1.3-3.3,4.1-3.9,8.3-3.3c0.9,0.1,1.3,0.6,1,1.4c-0.3,0.8-0.5,1.6-1,2.4c-1.7,2.6-1.4,4.8,0.9,7.1
		c1.4,1.4,2.7,3,3.9,4.6c2.4,3.2,1.9,7.4-1.1,10.6c-2.7,2.8-7.4,4-11.5,2.7c-1-0.3-1.9-0.9-2.6-1.5c-1.3-1.1-1.6-2.4-1-3.9
		c0.7-1.5,2.1-2.3,3.9-2.3C402.7,49.2,404.3,49.4,406,49.4z"/>
</g>
</svg>
